<svg version="1.1" id="_x32_" xmlns="http://www.w3.org/2000/svg" x="0" y="0" viewBox="0 0 512 512" style="width:32px;height:32px" xml:space="preserve" opacity="1"><style>.st0{fill:#4b4b4b}</style><path class="st0" d="M386.504 156.575c-19.34-15.092-38.896-20.3-56.195-20.19-13.232.017-25.064 2.706-35.536 5.081-10.48 2.436-19.632 4.481-27.221 4.448-7.575.034-16.723-2.012-27.207-4.448-10.472-2.376-22.304-5.064-35.532-5.081-17.303-.11-36.86 5.09-56.199 20.198-14.36 11.067-24.785 25.576-31.35 42.148-6.591 16.588-9.483 35.188-9.491 55.193.016 30.64 6.764 64.722 18.486 100.909 12.104 37.336 22.477 64.789 30.15 84.751 3.826 9.968 6.975 18.068 9.284 24.468 2.312 6.358 3.75 11.11 4.228 13.756 1.886 10.23 6.612 18.93 13.354 24.966 6.718 6.037 15.329 9.241 23.94 9.225 8.895.008 17.747-3.365 24.815-9.58 7.098-6.214 12.362-15.185 14.898-26.041.74-3.187 1.21-6.536 1.679-10.306.802-6.561 1.513-14.323 2.528-22.304 1.484-11.93 3.86-24.409 7.398-32.45 1.712-4.034 3.669-6.781 5.132-8.049 1.544-1.268 2.08-1.471 3.889-1.573 1.421.042 1.987.254 2.943.828 1.603.931 4.35 4.254 6.59 9.968 3.45 8.464 5.682 21.095 7.111 32.983.736 5.952 1.311 11.752 1.886 16.96.604 5.25 1.15 9.782 2.109 13.942 2.541 10.856 7.788 19.827 14.89 26.041 7.068 6.232 15.933 9.588 24.824 9.58 8.611.016 17.222-3.188 23.94-9.233 6.747-6.028 11.46-14.728 13.355-24.958.481-2.647 1.918-7.398 4.227-13.756 6.954-19.294 21.298-53.274 39.433-109.219 11.727-36.179 18.47-70.269 18.478-100.909 0-19.996-2.892-38.605-9.482-55.193-6.577-16.571-17.002-31.087-31.354-42.155zm-1.906 190.395c-11.925 36.77-22.08 63.648-29.698 83.475-3.813 9.925-6.984 18.076-9.465 24.941-2.474 6.899-4.292 12.437-5.298 17.722-1.065 5.546-3.191 8.742-5.318 10.661-2.156 1.919-4.456 2.698-6.916 2.732-2.541-.018-5.302-.905-8.003-3.247-2.672-2.359-5.351-6.291-6.878-12.716-.342-1.437-.786-4.194-1.197-7.567-.727-5.952-1.458-13.908-2.54-22.43-1.687-12.852-3.996-26.972-9.271-39.332-2.693-6.172-6.181-12.091-11.528-16.927-5.259-4.844-12.886-8.184-20.935-8.083-6.092-.034-12.052 1.81-16.791 4.913-8.357 5.53-13.012 13.604-16.394 21.873-4.98 12.513-7.165 26.674-8.754 39.374-.786 6.333-1.37 12.268-1.927 17.24-.546 4.938-1.12 9.03-1.59 10.941-1.522 6.426-4.207 10.348-6.879 12.699-2.713 2.359-5.461 3.246-8.002 3.246-2.468-.016-4.76-.811-6.916-2.714-2.126-1.919-4.253-5.115-5.318-10.652-1.006-5.294-2.824-10.831-5.297-17.73-7.407-20.495-21.26-53.206-39.163-108.416-11.174-34.42-17.256-66.194-17.236-93.046-.012-17.544 2.566-32.94 7.682-45.767 5.136-12.842 12.657-23.192 23.242-31.392 15.481-11.837 27.948-14.762 40.605-14.872 9.664-.009 19.514 2.054 29.841 4.439 10.328 2.333 21.108 5.039 32.898 5.081 11.796-.042 22.575-2.748 32.902-5.081 10.336-2.384 20.186-4.448 29.854-4.439 12.644.11 25.107 3.044 40.6 14.872 10.586 8.2 18.106 18.541 23.243 31.392 5.115 12.826 7.685 28.222 7.685 45.767.019 26.858-6.065 58.64-17.238 93.043zm76.567-287.338l-43.593-11.55c-1.141-.254-2.072-1.167-2.317-2.317L403.757 2.173A2.822 2.822 0 00401.018 0a2.821 2.821 0 00-2.74 2.173l-11.49 43.592a3.097 3.097 0 01-2.325 2.317l-43.593 11.55c-1.276.254-2.181 1.386-2.181 2.697 0 1.311.905 2.443 2.181 2.688l43.593 11.558c1.141.237 2.062 1.167 2.325 2.317l11.49 43.585a2.82 2.82 0 002.74 2.181 2.82 2.82 0 002.739-2.181l11.498-43.585a3.038 3.038 0 012.317-2.317l43.593-11.558c1.277-.245 2.182-1.378 2.182-2.688-.001-1.311-.905-2.443-2.182-2.697z" fill="#4b4b4b"/><path class="st0" d="M268.72 255.75l-39.809-10.551a2.787 2.787 0 01-2.114-2.114l-10.501-39.805a2.58 2.58 0 00-2.502-1.987 2.58 2.58 0 00-2.503 1.987l-10.492 39.805a2.814 2.814 0 01-2.122 2.114l-39.81 10.551c-1.166.229-1.99 1.268-1.99 2.461 0 1.201.824 2.232 1.99 2.46l39.81 10.551c1.044.22 1.886 1.066 2.122 2.114l10.492 39.805a2.571 2.571 0 002.503 1.987c1.196 0 2.223-.82 2.502-1.987l10.501-39.805a2.775 2.775 0 012.114-2.114l39.809-10.551c1.167-.228 1.991-1.26 1.991-2.46 0-1.193-.824-2.232-1.991-2.461zM109.731 130.72l33.756-8.945c.989-.195 1.686-1.065 1.686-2.088 0-1.006-.698-1.894-1.686-2.088l-33.756-8.945a2.37 2.37 0 01-1.792-1.792L99.036 73.11a2.186 2.186 0 00-2.122-1.682 2.187 2.187 0 00-2.122 1.682l-8.895 33.752a2.395 2.395 0 01-1.801 1.792l-33.756 8.945c-.99.194-1.686 1.082-1.686 2.088 0 1.024.697 1.894 1.686 2.088l33.756 8.945c.884.186 1.598.905 1.801 1.792l8.895 33.752a2.178 2.178 0 004.244 0l8.903-33.752a2.357 2.357 0 011.792-1.792z" fill="#4b4b4b"/></svg>