<svg xmlns="http://www.w3.org/2000/svg" width="269.563" height="30.935"><g data-name="グループ 9037" fill="#1391e6"><path data-name="パス 43697" d="M48.427 5.315h4.536q3.969.028 3.743 4.372-.17 1.7-.453 4a23.9 23.9 0 012.466.965q.142-1.221.283-3.293.114-1.874 1.844-1.874 1.956.056 1.9 1.874-.2 3.065-.425 4.968l1.134.653q2.07.966 1.248 3.406a1.694 1.694 0 01-2.608.8l-.482-.256a54.307 54.307 0 01-1.673 5.82 1.944 1.944 0 01-2.721 1.136 1.836 1.836 0 01-1.021-2.726 27.046 27.046 0 001.786-6.1q-.652-.312-1.276-.582t-1.219-.5l-.028.057a21.546 21.546 0 01-1.361 3.86 12.538 12.538 0 01-2.169 3.35 4.219 4.219 0 01-2.82 1.477 3.6 3.6 0 01-3.3-2.016 8.933 8.933 0 01-.722-5.309 6.522 6.522 0 011.46-3.279 8.951 8.951 0 012.721-2.214 7.86 7.86 0 013.3-.893q.114-.908.2-1.76.113-1.363-.964-1.391h-3.379a2.271 2.271 0 010-4.542zm.822 16.834a1.4 1.4 0 001.091-.767 7.454 7.454 0 00.78-1.7q.311-.966.482-1.718t.171-.781a2.853 2.853 0 00-1.645.483 3.256 3.256 0 00-1.063 1.135 5.656 5.656 0 00-.5 1.164 2.562 2.562 0 00.1 1.647q.297.538.581.537z"/><path data-name="パス 43698" d="M67.393 9.403a1.88 1.88 0 012.126-2.129h1.446l.312-1.7q.313-1.5 2.212-1.533 1.985.114 1.645 1.761a10.9 10.9 0 00-.255 1.477h1.475a2.143 2.143 0 010 4.286h-2.161q-2.012 8.488-2.41 10.192-.425 1.675-2.381 1.363a1.67 1.67 0 01-1.475-2.271q1.787-6.529 2.269-9.284h-.681a1.893 1.893 0 01-2.122-2.162zm15.962 4.883v2.782a22.46 22.46 0 013.176 1.5q1.218.908.34 2.612a1.614 1.614 0 01-2.382.568q-.4-.2-1.134-.482v1.845a5.934 5.934 0 01-.723 3.251 3.643 3.643 0 01-1.744 1.476 5.843 5.843 0 01-2.07.383 6.9 6.9 0 01-2.679-.426 4.82 4.82 0 01-2.24-1.731 5.839 5.839 0 01-.921-3.52 6.062 6.062 0 011.8-4.585 6.25 6.25 0 014.891-1.461v-2.214a1.843 1.843 0 113.685 0zm-4.537 9.936a.747.747 0 00.638-.426 2.219 2.219 0 00.213-1.051v-2.413a3.054 3.054 0 00-2.325.369 2.175 2.175 0 00-.879 1.646 1.656 1.656 0 00.609 1.5 2.6 2.6 0 001.742.375zM79.893 8.38a1.883 1.883 0 012.609-1.419l2.551.681a1.8 1.8 0 011.475 2.5 1.914 1.914 0 01-2.635 1.418l-2.523-.681a1.771 1.771 0 01-1.477-2.499z"/><path data-name="パス 43699" d="M93.475 5.315h4.537q3.969.028 3.743 4.372-.17 1.7-.454 4a23.826 23.826 0 012.467.965q.142-1.221.284-3.293.113-1.874 1.843-1.874 1.957.056 1.9 1.874-.2 3.065-.425 4.968l1.134.653q2.069.966 1.248 3.406a1.7 1.7 0 01-2.609.8l-.482-.256a54.532 54.532 0 01-1.673 5.82 1.945 1.945 0 01-2.722 1.136 1.835 1.835 0 01-1.02-2.726 27.043 27.043 0 001.786-6.1q-.653-.312-1.276-.582t-1.219-.5l-.028.057a21.615 21.615 0 01-1.361 3.86 12.579 12.579 0 01-2.169 3.35 4.219 4.219 0 01-2.821 1.477 3.6 3.6 0 01-3.3-2.016 8.933 8.933 0 01-.723-5.309 6.529 6.529 0 011.46-3.279 8.955 8.955 0 012.722-2.214 7.857 7.857 0 013.3-.893q.113-.908.2-1.76.111-1.363-.964-1.391h-3.375a2.271 2.271 0 010-4.542zm.822 16.834a1.4 1.4 0 001.092-.767 7.454 7.454 0 00.78-1.7q.311-.966.482-1.718t.17-.781a2.852 2.852 0 00-1.644.483 3.255 3.255 0 00-1.063 1.135 5.711 5.711 0 00-.5 1.164 2.567 2.567 0 00.1 1.647q.299.538.583.537z"/><path data-name="パス 43700" d="M127.582 6.705a.25.25 0 00.283.284h9.214a1.832 1.832 0 110 3.663h-23.135a1.739 1.739 0 01-1.276-.539 1.818 1.818 0 010-2.584 1.74 1.74 0 011.276-.54h1.928a.251.251 0 00.283-.284V4.491a2.013 2.013 0 014.026 0v2.214a.25.25 0 00.283.284h2.637a.251.251 0 00.283-.284v-3.6a2.082 2.082 0 012.1-2.1h.652a1.453 1.453 0 011.447 1.447.15.15 0 00.17.17h6.777a1.585 1.585 0 011.162.483 1.682 1.682 0 010 2.356 1.588 1.588 0 01-1.162.482h-6.663a.25.25 0 00-.283.284zm5.585 17.232a.251.251 0 00.283-.284V13.32a2.041 2.041 0 114.082 0v13.314a2.035 2.035 0 01-2.042 2.044h-1.02a1.017 1.017 0 01-1.02-1.023.1.1 0 00-.114-.113h-15.592a.1.1 0 00-.114.113 1.017 1.017 0 01-1.02 1.023h-.992a2.035 2.035 0 01-2.013-2.016v-13.37a2.013 2.013 0 014.025 0v6.984a.192.192 0 00.085.17.188.188 0 00.17.028 13.523 13.523 0 003.714-2.186.082.082 0 00.043-.1.087.087 0 00-.1-.071h-1.844a1.504 1.504 0 110-3.009h.029c.113 0 .15-.057.113-.171a9.378 9.378 0 00-.567-1.164 1.292 1.292 0 01-.17-.624 1.558 1.558 0 01.056-.426 1.109 1.109 0 01.738-.739 1.831 1.831 0 01.709-.142 2.906 2.906 0 01.567.057 1.692 1.692 0 01.992.766 1 1 0 01.114.142 1.555 1.555 0 01.2.738 1.885 1.885 0 01-.085.539 1.635 1.635 0 01-.936.937h-.028a.044.044 0 00-.015.056.045.045 0 00.043.029h1.815a.251.251 0 00.283-.284v-1.76a1.786 1.786 0 013.573 0v1.76a.251.251 0 00.283.284h2.24a.045.045 0 00.042-.029c.009-.019 0-.028-.014-.028l-.227-.085a1.36 1.36 0 01-.879-.823 1.518 1.518 0 01-.114-.568 1.557 1.557 0 01.142-.653 2.162 2.162 0 01.936-.993 1.813 1.813 0 01.822-.2 1.371 1.371 0 01.482.086h.057a1.194 1.194 0 01.821.767 1.271 1.271 0 01.085.454 1.137 1.137 0 01-.227.682q-.594.88-.821 1.192a.1.1 0 00-.014.128.119.119 0 00.1.071h.511a1.504 1.504 0 010 3.009h-1.986c-.057 0-.091.023-.1.071a.08.08 0 00.043.1 12.217 12.217 0 002.41 1.562 1.218 1.218 0 01.652.908 1.063 1.063 0 01.028.256 1.214 1.214 0 01-.312.8 2.436 2.436 0 01-1.248.766 1.551 1.551 0 01-.425.056 1.736 1.736 0 01-.936-.284 16.173 16.173 0 01-2.154-1.817.114.114 0 00-.2.086v1.051a1.786 1.786 0 01-3.573 0v-.937a.11.11 0 00-.071-.114.109.109 0 00-.127.028 14.289 14.289 0 01-1.616 1.448 2.274 2.274 0 01-1.871.4 3.263 3.263 0 01-1.73-1.05 2.394 2.394 0 01-.312-.312.115.115 0 00-.2.085v2.442a.251.251 0 00.284.284z"/><path data-name="パス 43701" d="M151.2 16.131a2.386 2.386 0 01.681 1.533v.17a2.38 2.38 0 01-.482 1.448 1.136 1.136 0 01-.963.511.474.474 0 01-.143-.028 1.162 1.162 0 01-.992-.653 3.226 3.226 0 01-.2-.34.07.07 0 00-.085-.043.066.066 0 00-.056.071v8.431a2.042 2.042 0 11-4.083 0v-6.642a.066.066 0 00-.043-.071c-.028-.009-.053.005-.071.043q-.624 1.392-1.219 2.441a.991.991 0 01-.907.54h-.142a1.232 1.232 0 01-1.021-.738 3.75 3.75 0 01-.368-1.647v-.284a4.234 4.234 0 01.623-1.874 31.179 31.179 0 002.5-4.967.242.242 0 00-.028-.2.168.168 0 00-.142-.085h-1.333a1.937 1.937 0 01-1.956-1.945 1.925 1.925 0 01.567-1.391 1.864 1.864 0 011.389-.581h1.872a.251.251 0 00.284-.284V7.417a.23.23 0 00-.085-.185.3.3 0 00-.2-.071l-.85.142a1.453 1.453 0 01-.283.028 1.737 1.737 0 01-1.021-.341 2.325 2.325 0 01-.851-1.135 1.615 1.615 0 01-.085-.51 1.51 1.51 0 01.17-.681 1.3 1.3 0 01.964-.681 51.679 51.679 0 005.783-1.448 2.666 2.666 0 01.85-.142 2.928 2.928 0 01.879.142 2.444 2.444 0 011.361 1.05 1.441 1.441 0 01.284.852 1.469 1.469 0 01-.114.54 1.38 1.38 0 01-.992.937q-.708.2-1.446.369a.315.315 0 00-.283.341v2.924a.251.251 0 00.283.284h1.333a1.863 1.863 0 011.388.581 1.926 1.926 0 01.568 1.391 1.939 1.939 0 01-1.956 1.945h-1.56a.049.049 0 00-.056.056.091.091 0 00.056.086q.565.508 2.181 2.24zm16.9 3.35a2.183 2.183 0 01.028.34 2.03 2.03 0 01-.369 1.165 1.949 1.949 0 01-1.3.823l-.992.2a.28.28 0 00-.284.312v4.854a2.084 2.084 0 01-4.168 0v-4.088a.228.228 0 00-.085-.185.17.17 0 00-.17-.043l-6.124 1.107a2.633 2.633 0 01-.369.028 1.887 1.887 0 01-1.134-.369 1.947 1.947 0 01-.822-1.306 2.167 2.167 0 01-.028-.369 2.022 2.022 0 01.368-1.165 1.928 1.928 0 011.333-.852l6.777-1.221a.271.271 0 00.255-.312V3.725a2.025 2.025 0 01.61-1.49 2.085 2.085 0 012.948 0 2.032 2.032 0 01.61 1.49v13.939a.23.23 0 00.084.185.169.169 0 00.17.042l.369-.056a2.629 2.629 0 01.369-.028 1.97 1.97 0 011.134.369 1.848 1.848 0 01.788 1.305zm-14.177-4.939a1.628 1.628 0 01-.538-1.221 1.539 1.539 0 01.538-1.193 2.1 2.1 0 011.362-.568h.085a1.958 1.958 0 011.3.483q1.048.908 1.843 1.675a1.844 1.844 0 01.539 1.306 2 2 0 01-.681 1.533 1.679 1.679 0 01-1.191.482h-.17a2.007 2.007 0 01-1.3-.68q-.796-.882-1.789-1.818zm5.5-8.488a1.76 1.76 0 01.511 1.249v.2a2.016 2.016 0 01-.709 1.363 1.667 1.667 0 01-1.134.454.933.933 0 01-.227-.028 1.922 1.922 0 01-1.3-.681 22.822 22.822 0 00-1.645-1.76 1.575 1.575 0 01-.511-1.192 1.534 1.534 0 01.567-1.221 2.069 2.069 0 011.389-.51 1.965 1.965 0 011.361.51q.959.848 1.697 1.615z"/><path data-name="パス 43702" d="M179.014 7.046h5.018q5.045-.056 4.252 5.507a20.771 20.771 0 01-1.616 5.351 15.01 15.01 0 01-3.076 4.642 17.947 17.947 0 01-3.785 2.924 29.924 29.924 0 01-4.224 1.959 2.1 2.1 0 01-2.949-1.135q-.6-2.186 1.219-2.9a15.309 15.309 0 002.438-.994 14.424 14.424 0 003.317-2.328 12.773 12.773 0 002.793-3.605 11.033 11.033 0 001.261-3.69q.2-1.476-1.3-1.5h-5.076a21.083 21.083 0 01-3.288 4.23q-1.674 1.59-3.176.455-1.39-1.874.028-3.322a14.054 14.054 0 001.872-2.214 17.406 17.406 0 002.069-4.457 2.261 2.261 0 012.949-1.7q1.953.562 1.274 2.777z"/><path data-name="パス 43703" d="M192.679 6.621a2.2 2.2 0 014.394 0v8.943a2.2 2.2 0 01-4.394 0zm5.358 16.72a8.873 8.873 0 003.246-1.959 9.9 9.9 0 001.729-2.654 9.622 9.622 0 00.751-3.9v-8.2a2.2 2.2 0 014.4 0v8.2a15.1 15.1 0 01-1.135 6.032 11.018 11.018 0 01-2.919 4.017 17.1 17.1 0 01-4.593 2.669q-2.24.681-2.949-1.363-.43-2.273 1.47-2.842z"/><path data-name="パス 43704" d="M228.095 22.093a2.228 2.228 0 010 4.456h-13.556a2.228 2.228 0 010-4.456zM212.87 7.984a1.956 1.956 0 012.212-2.215h12.413a2.229 2.229 0 010 4.457h-12.418a1.956 1.956 0 01-2.212-2.214z"/><path data-name="パス 43705" d="M236.171 9.63l1.106 6.813a1.411 1.411 0 01-1.219 1.789q-1.418.255-1.616-1.277l-1.134-6.728a1.345 1.345 0 011.3-1.7q1.422-.118 1.563 1.103zm.737 17.655q-2.015.453-2.41-1.363-.283-2.015 1.333-2.3a9.018 9.018 0 004.083-2.059 11.261 11.261 0 002.779-3.733 24.106 24.106 0 001.546-4.258 29.591 29.591 0 00.666-3.18 1.847 1.847 0 012.013-1.845q1.928.085 1.645 2.129a29.8 29.8 0 01-1.531 6.713 19.676 19.676 0 01-2.58 4.614 14.712 14.712 0 01-3.658 3.506 12.1 12.1 0 01-3.886 1.776zm4-17.658l1.106 6.813a1.418 1.418 0 01-1.248 1.789q-1.418.255-1.616-1.277l-1.135-6.728a1.363 1.363 0 011.3-1.7q1.45-.115 1.593 1.106z"/><path data-name="パス 43706" d="M260.184 7.046h5.018q5.046-.056 4.253 5.507a20.74 20.74 0 01-1.616 5.351 15.009 15.009 0 01-3.076 4.642 17.973 17.973 0 01-3.785 2.924 29.959 29.959 0 01-4.224 1.959 2.1 2.1 0 01-2.948-1.135q-.6-2.186 1.219-2.9a15.308 15.308 0 002.439-.994 14.445 14.445 0 003.317-2.328 12.772 12.772 0 002.792-3.605 11.056 11.056 0 001.262-3.69q.2-1.476-1.3-1.5h-5.08a21.05 21.05 0 01-3.289 4.23q-1.673 1.59-3.175.455-1.39-1.874.028-3.322a14.057 14.057 0 001.871-2.214 17.381 17.381 0 002.07-4.457 2.26 2.26 0 012.948-1.7q1.956.562 1.276 2.777z"/></g><g data-name="グループ 9039"><g data-name="グループ 9038" transform="translate(2.897 3.656)"><path data-name="パス 43707" d="M27.862 1.816A8.59 8.59 0 0024.715.209a5.776 5.776 0 00-5.953 1.892 4.506 4.506 0 01-6.782.106A6.115 6.115 0 005.58.314a8.448 8.448 0 00-2.785 1.5c-5.188 4.319-1.683 14.362-1.057 16.132 1.806 5.093 5.368 9.321 7.383 9.323 1.512 0 2.436.05 3.645-4.814a4.274 4.274 0 011.7-2.582 1.436 1.436 0 011.519-.014 4.22 4.22 0 011.8 2.6c1.21 4.864 2.3 4.861 3.7 4.814 2.01-.067 5.6-4.23 7.4-9.323.634-1.772 4.165-11.815-1.023-16.134z" fill="#1391e6"/><path data-name="パス 43804" d="M11.374 13.021a3.626 3.626 0 007.252 0z" fill="#fff"/><path data-name="パス 43725" d="M-1.268 2.519a1.2 1.2 0 00.733.732l.211.061c.313.09.313.238 0 .327l-.211.061a1.2 1.2 0 00-.733.732l-.061.212c-.09.313-.238.313-.327 0l-.061-.212a1.194 1.194 0 00-.732-.732l-.212-.061c-.313-.09-.313-.238 0-.327l.212-.061a1.194 1.194 0 00.732-.732l.061-.212c.09-.313.238-.313.327 0z" fill="#1391e6"/><path data-name="パス 43727" d="M1.49-2.746a2.445 2.445 0 001.495 1.495l.433.124c.638.185.638.487 0 .671l-.433.124A2.445 2.445 0 001.49 1.163l-.124.432c-.184.639-.486.639-.669 0l-.125-.432A2.442 2.442 0 00-.923-.332l-.432-.124c-.638-.184-.638-.486 0-.671l.432-.124A2.442 2.442 0 00.572-2.746l.125-.432c.184-.639.486-.639.669 0z" fill="#1391e6"/><rect data-name="長方形 23377" width="2" height="4" rx="1" transform="translate(11 6.834)" fill="#fff"/><rect data-name="長方形 23378" width="2" height="4" rx="1" transform="translate(17 6.834)" fill="#fff"/></g></g></svg>