<svg xmlns="http://www.w3.org/2000/svg" width="48.858" height="28.613"><path d="M46.79 6.559h-9.648a2.068 2.068 0 00-2.068 2.068v17.918a2.068 2.068 0 002.068 2.068h9.649a2.068 2.068 0 002.068-2.068V8.627a2.068 2.068 0 00-2.069-2.068zm-4.824 20.675a1.378 1.378 0 111.378-1.375 1.377 1.377 0 01-1.378 1.375zm4.824-4.652a.518.518 0 01-.517.517h-8.615a.518.518 0 01-.517-.517V9.143a.518.518 0 01.517-.517h8.616a.518.518 0 01.517.517zM29.507 0H2.682A2.683 2.683 0 000 2.682v17.883a2.683 2.683 0 002.682 2.682h10.73l-.894 2.682H8.494a1.341 1.341 0 100 2.682h15.2a1.341 1.341 0 100-2.682h-4.023l-.894-2.682h10.73a2.683 2.683 0 002.682-2.682V2.682A2.683 2.683 0 0029.507 0zm-.894 19.671H3.577V3.577h25.036z" fill="#fff"/></svg>