<svg xmlns="http://www.w3.org/2000/svg" width="48.858" height="28.613" viewBox="0 0 48.858 28.613">
  <g id="icon-pc" transform="translate(0 -190.769)">
    <path id="mobile-alt" d="M11.716,0H2.068A2.068,2.068,0,0,0,0,2.068V19.986a2.068,2.068,0,0,0,2.068,2.068h9.649a2.068,2.068,0,0,0,2.068-2.068V2.068A2.068,2.068,0,0,0,11.716,0ZM6.892,20.675A1.378,1.378,0,1,1,8.27,19.3,1.377,1.377,0,0,1,6.892,20.675Zm4.824-4.652a.518.518,0,0,1-.517.517H2.584a.518.518,0,0,1-.517-.517V2.584a.518.518,0,0,1,.517-.517H11.2a.518.518,0,0,1,.517.517Z" transform="translate(35.074 197.328)" fill="#fff"/>
    <path id="desktop" d="M29.507,0H2.682A2.683,2.683,0,0,0,0,2.682V20.565a2.683,2.683,0,0,0,2.682,2.682h10.73l-.894,2.682H8.494a1.341,1.341,0,1,0,0,2.682h15.2a1.341,1.341,0,1,0,0-2.682H19.671l-.894-2.682h10.73a2.683,2.683,0,0,0,2.682-2.682V2.682A2.683,2.683,0,0,0,29.507,0Zm-.894,19.671H3.577V3.577H28.613Z" transform="translate(0 190.769)" fill="#fff"/>
  </g>
</svg>
