<svg id="icon-04" xmlns="http://www.w3.org/2000/svg" width="24" height="24" viewBox="0 0 24 24">
  <g id="people">
    <rect id="長方形_23354" data-name="長方形 23354" width="24" height="24" fill="#393939" opacity="0"/>
    <path id="パス_43762" data-name="パス 43762" d="M9,11A4,4,0,1,0,5,7a4,4,0,0,0,4,4ZM9,5A2,2,0,1,1,7,7,2,2,0,0,1,9,5Z" fill="#393939"/>
    <path id="パス_43763" data-name="パス 43763" d="M17,13a3,3,0,1,0-3-3A3,3,0,0,0,17,13Zm0-4a1,1,0,1,1-1,1A1,1,0,0,1,17,9Z" fill="#393939"/>
    <path id="パス_43764" data-name="パス 43764" d="M17,14a5,5,0,0,0-3.06,1.05A7,7,0,0,0,2,20a1,1,0,1,0,2,0,5,5,0,0,1,10,0,1,1,0,0,0,2,0,6.9,6.9,0,0,0-.86-3.35A3,3,0,0,1,20,19a1,1,0,1,0,2,0A5,5,0,0,0,17,14Z" fill="#393939"/>
  </g>
</svg>
