<svg xmlns="http://www.w3.org/2000/svg" width="24" height="24" viewBox="0 0 24 24">
  <defs>
    <style>
      .cls-1, .cls-2 {
        fill: #393939;
      }

      .cls-1 {
        opacity: 0;
      }

      .cls-3 {
        fill: none;
      }
    </style>
  </defs>
  <g id="グループ_10833" data-name="グループ 10833" transform="translate(-305 -7172.777)">
    <g id="icon-02" transform="translate(305 7172.777)">
      <rect id="長方形_23373" data-name="長方形 23373" class="cls-1" width="24" height="24"/>
      <path id="hospital" class="cls-2" d="M5.368,10.232V8.555a.5.5,0,0,1,.5-.5H7.548a.5.5,0,0,1,.5.5v1.677a.5.5,0,0,1-.5.5H5.871A.5.5,0,0,1,5.368,10.232Zm5.871.5h1.677a.5.5,0,0,0,.5-.5V8.555a.5.5,0,0,0-.5-.5H11.238a.5.5,0,0,0-.5.5v1.677A.5.5,0,0,0,11.238,10.735ZM8.051,14.258V12.58a.5.5,0,0,0-.5-.5H5.871a.5.5,0,0,0-.5.5v1.677a.5.5,0,0,0,.5.5H7.548A.5.5,0,0,0,8.051,14.258Zm3.187.5h1.677a.5.5,0,0,0,.5-.5V12.58a.5.5,0,0,0-.5-.5H11.238a.5.5,0,0,0-.5.5v1.677A.5.5,0,0,0,11.238,14.761Zm7.548,5.2v1.51H0v-1.51a.5.5,0,0,1,.5-.5h.818V3.566a.95.95,0,0,1,1.006-.882H6.039V1.006A1.006,1.006,0,0,1,7.045,0h4.7a1.006,1.006,0,0,1,1.006,1.006V2.684h3.711a.95.95,0,0,1,1.006.882V19.458h.818A.5.5,0,0,1,18.787,19.961ZM3.334,19.416H8.051v-2.81a.5.5,0,0,1,.5-.5h1.677a.5.5,0,0,1,.5.5v2.81h4.718V4.7h-2.7V5.7A1.006,1.006,0,0,1,11.742,6.71h-4.7A1.006,1.006,0,0,1,6.039,5.7V4.7h-2.7ZM11.155,2.684h-1.09V1.594a.252.252,0,0,0-.252-.252H8.974a.252.252,0,0,0-.252.252v1.09H7.632a.252.252,0,0,0-.252.252v.839a.252.252,0,0,0,.252.252h1.09v1.09a.252.252,0,0,0,.252.252h.839a.252.252,0,0,0,.252-.252V4.026h1.09a.252.252,0,0,0,.252-.252V2.935A.252.252,0,0,0,11.155,2.684Z" transform="translate(3 1)"/>
    </g>
    <rect id="長方形_23334" data-name="長方形 23334" class="cls-3" width="24" height="24" transform="translate(305 7172.777)"/>
  </g>
</svg>
